{
  "source": "C:\\Users\\Peter\\Desktop\\stuff\\MIUN\\quantitative_research\\video_compression\\videos\\BVI-HD\\BVI-HD_CDVL_videos\\ORIG\\Lightreef_1920x1080_30fps.mp4",
  "output": "C:\\Users\\Peter\\Desktop\\stuff\\MIUN\\quantitative_research\\video_compression\\compressed_videos\\BVI-HD\\hevc\\3\\Lightreef_1920x1080_30fps_hevc.mp4",
  "codec": "hevc",
  "ok": "Input #0, mov,mp4,m4a,3gp,3g2,mj2, from 'C:\\Users\\Peter\\Desktop\\stuff\\MIUN\\quantitative_research\\video_compression\\videos\\BVI-HD\\BVI-HD_CDVL_videos\\ORIG\\Lightreef_1920x1080_30fps.mp4':\n  Metadata:\n    major_brand     : isom\n    minor_version   : 512\n    compatible_brands: isomiso2avc1mp41\n    encoder         : Lavf54.28.101\n  Duration: 00:00:05.00, start: 0.000000, bitrate: 361719 kb/s\n  Stream #0:0[0x1](und): Video: h264 (High 4:4:4 Predictive) (avc1 / 0x31637661), yuv420p(progressive), 1920x1080, 361715 kb/s, 30 fps, 30 tbr, 30 tbn (default)\n    Metadata:\n      handler_name    : VideoHandler\n      vendor_id       : [0][0][0][0]\n[out#0/mp4 @ 000001853cecab00] Codec AVOption b:a (set bitrate (in bits/s)) has not been used for any stream. The most likely reason is either wrong type (e.g. a video option with no video streams) or that it is a private option of some decoder which was not actually used for any stream.\nStream mapping:\n  Stream #0:0 -> #0:0 (h264 (native) -> hevc (libx265))\nPress [q] to stop, [?] for help\n[libx265 @ 000001853dad0bc0] Unknown option: \"aq-mode.\nx265 [info]: HEVC encoder version 4.1+190-8f11c33ac\nx265 [info]: build info [Windows][GCC 15.1.0][64 bit] 10bit\nx265 [info]: using cpu capabilities: MMX2 SSE2Fast LZCNT SSSE3 SSE4.2 AVX FMA3 BMI2 AVX2\nx265 [info]: Main 10 profile, Level-4 (Main tier)\nx265 [info]: Thread pool created using 12 threads\nx265 [info]: Slices                              : 1\nx265 [info]: frame threads / pool features       : 3 / wpp(17 rows)\nx265 [info]: Coding QT: max CU size, min CU size : 64 / 8\nx265 [info]: Residual QT: max TU size, max depth : 32 / 1 inter / 1 intra\nx265 [info]: ME / range / subpel / merge         : star / 57 / 3 / 3\nx265 [info]: Keyframe min / max / scenecut / bias  : 25 / 250 / 40 / 5.00 \nx265 [info]: Lookahead / bframes / badapt        : 25 / 4 / 2\nx265 [info]: b-pyramid / weightp / weightb       : 1 / 1 / 0\nx265 [info]: References / ref-limit  cu / depth  : 4 / on / on\nx265 [info]: AQ: mode / str / qg-size / cu-tree  : 2 / 1.0 / 32 / 1\nx265 [info]: Rate Control / qCompress            : ABR-3000 kbps / 0.60\nx265 [info]: VBV/HRD buffer / max-rate / init    : 3000 / 3000 / 0.750\nx265 [info]: tools: rect limit-modes rd=4 psy-rd=2.00 rdoq=2 psy-rdoq=1.00\nx265 [info]: tools: rskip mode=1 signhide tmvp strong-intra-smoothing lslices=4\nx265 [info]: tools: deblock sao dhdr10-info\nOutput #0, mp4, to 'C:\\Users\\Peter\\Desktop\\stuff\\MIUN\\quantitative_research\\video_compression\\compressed_videos\\BVI-HD\\hevc\\3\\Lightreef_1920x1080_30fps_hevc.mp4':\n  Metadata:\n    major_brand     : isom\n    minor_version   : 512\n    compatible_brands: isomiso2avc1mp41\n    encoder         : Lavf62.3.100\n  Stream #0:0(und): Video: hevc (hev1 / 0x31766568), yuv420p10le(tv, progressive), 1920x1080, q=2-31, 3000 kb/s, 30 fps, 15360 tbn (default)\n    Metadata:\n      encoder         : Lavc62.11.100 libx265\n      handler_name    : VideoHandler\n      vendor_id       : [0][0][0][0]\n    Side data:\n      cpb: bitrate max/min/avg: 3000000/0/3000000 buffer size: 3000000 vbv_delay: N/A\nframe=    0 fps=0.0 q=0.0 size=       0KiB time=N/A bitrate=N/A speed=N/A elapsed=0:00:00.51    \nframe=    0 fps=0.0 q=0.0 size=       0KiB time=N/A bitrate=N/A speed=N/A elapsed=0:00:01.06    \nframe=    0 fps=0.0 q=0.0 size=       0KiB time=N/A bitrate=N/A speed=N/A elapsed=0:00:01.58    \nframe=    0 fps=0.0 q=0.0 size=       0KiB time=N/A bitrate=N/A speed=N/A elapsed=0:00:02.10    \nframe=    0 fps=0.0 q=0.0 size=       0KiB time=N/A bitrate=N/A speed=N/A elapsed=0:00:02.62    \nframe=    0 fps=0.0 q=0.0 size=       0KiB time=N/A bitrate=N/A speed=N/A elapsed=0:00:03.14    \nframe=    0 fps=0.0 q=0.0 size=       0KiB time=N/A bitrate=N/A speed=N/A elapsed=0:00:03.70    \nframe=    0 fps=0.0 q=0.0 size=       0KiB time=N/A bitrate=N/A speed=N/A elapsed=0:00:04.30    \nframe=    0 fps=0.0 q=0.0 size=       0KiB time=N/A bitrate=N/A speed=N/A elapsed=0:00:04.81    \nframe=    0 fps=0.0 q=0.0 size=       0KiB time=N/A bitrate=N/A speed=N/A elapsed=0:00:05.39    \nframe=    0 fps=0.0 q=0.0 size=       0KiB time=N/A bitrate=N/A speed=N/A elapsed=0:00:05.94    \nframe=    0 fps=0.0 q=0.0 size=       0KiB time=N/A bitrate=N/A speed=N/A elapsed=0:00:06.53    \nframe=    0 fps=0.0 q=0.0 size=       0KiB time=N/A bitrate=N/A speed=N/A elapsed=0:00:07.15    \nframe=    0 fps=0.0 q=0.0 size=       0KiB time=N/A bitrate=N/A speed=N/A elapsed=0:00:07.82    \nframe=    0 fps=0.0 q=0.0 size=       0KiB time=N/A bitrate=N/A speed=N/A elapsed=0:00:08.42    \nframe=    0 fps=0.0 q=0.0 size=       0KiB time=N/A bitrate=N/A speed=N/A elapsed=0:00:08.98    \nframe=    0 fps=0.0 q=0.0 size=       0KiB time=N/A bitrate=N/A speed=N/A elapsed=0:00:09.51    \nframe=    0 fps=0.0 q=0.0 size=       0KiB time=N/A bitrate=N/A speed=N/A elapsed=0:00:10.05    \nframe=    0 fps=0.0 q=0.0 size=       0KiB time=N/A bitrate=N/A speed=N/A elapsed=0:00:10.59    \nframe=    0 fps=0.0 q=0.0 size=       0KiB time=N/A bitrate=N/A speed=N/A elapsed=0:00:11.15    \nframe=    0 fps=0.0 q=0.0 size=       0KiB time=N/A bitrate=N/A speed=N/A elapsed=0:00:11.69    \nframe=    0 fps=0.0 q=0.0 size=       0KiB time=N/A bitrate=N/A speed=N/A elapsed=0:00:12.28    \nframe=    0 fps=0.0 q=0.0 size=       0KiB time=N/A bitrate=N/A speed=N/A elapsed=0:00:12.90    \nframe=    0 fps=0.0 q=0.0 size=       0KiB time=N/A bitrate=N/A speed=N/A elapsed=0:00:13.44    \nframe=    0 fps=0.0 q=0.0 size=       0KiB time=N/A bitrate=N/A speed=N/A elapsed=0:00:13.98    \nframe=    0 fps=0.0 q=0.0 size=       0KiB time=N/A bitrate=N/A speed=N/A elapsed=0:00:14.53    \nframe=    0 fps=0.0 q=0.0 size=       0KiB time=N/A bitrate=N/A speed=N/A elapsed=0:00:15.10    \nframe=    0 fps=0.0 q=0.0 size=       0KiB time=N/A bitrate=N/A speed=N/A elapsed=0:00:15.64    \nframe=    0 fps=0.0 q=0.0 size=       0KiB time=N/A bitrate=N/A speed=N/A elapsed=0:00:16.23    \nframe=    0 fps=0.0 q=0.0 size=       0KiB time=N/A bitrate=N/A speed=N/A elapsed=0:00:16.78    \nframe=    0 fps=0.0 q=0.0 size=       0KiB time=N/A bitrate=N/A speed=N/A elapsed=0:00:17.36    \nframe=    0 fps=0.0 q=0.0 size=       0KiB time=N/A bitrate=N/A speed=N/A elapsed=0:00:17.92    \nframe=    0 fps=0.0 q=0.0 size=       0KiB time=N/A bitrate=N/A speed=N/A elapsed=0:00:18.48    \nframe=    0 fps=0.0 q=0.0 size=       0KiB time=N/A bitrate=N/A speed=N/A elapsed=0:00:19.04    \nframe=    0 fps=0.0 q=0.0 size=       0KiB time=N/A bitrate=N/A speed=N/A elapsed=0:00:19.59    \nframe=    0 fps=0.0 q=0.0 size=       0KiB time=N/A bitrate=N/A speed=N/A elapsed=0:00:20.15    \nframe=    0 fps=0.0 q=0.0 size=       0KiB time=N/A bitrate=N/A speed=N/A elapsed=0:00:20.75    \nframe=    0 fps=0.0 q=0.0 size=       0KiB time=N/A bitrate=N/A speed=N/A elapsed=0:00:21.32    \nframe=    0 fps=0.0 q=0.0 size=       0KiB time=N/A bitrate=N/A speed=N/A elapsed=0:00:21.83    \nframe=    0 fps=0.0 q=0.0 size=       0KiB time=N/A bitrate=N/A speed=N/A elapsed=0:00:22.36    \nframe=    0 fps=0.0 q=0.0 size=       0KiB time=N/A bitrate=N/A speed=N/A elapsed=0:00:22.89    \nframe=    0 fps=0.0 q=0.0 size=       0KiB time=N/A bitrate=N/A speed=N/A elapsed=0:00:23.43    \nframe=    0 fps=0.0 q=0.0 size=       0KiB time=N/A bitrate=N/A speed=N/A elapsed=0:00:24.00    \nframe=    0 fps=0.0 q=0.0 size=       0KiB time=N/A bitrate=N/A speed=N/A elapsed=0:00:24.53    \nframe=    0 fps=0.0 q=0.0 size=       0KiB time=N/A bitrate=N/A speed=N/A elapsed=0:00:25.07    \nframe=    0 fps=0.0 q=0.0 size=       0KiB time=N/A bitrate=N/A speed=N/A elapsed=0:00:25.65    \nframe=    1 fps=0.0 q=36.2 size=       0KiB time=-00:00:00.03 bitrate=N/A speed=N/A elapsed=0:00:26.20    \nframe=    1 fps=0.0 q=36.2 size=       0KiB time=-00:00:00.03 bitrate=N/A speed=N/A elapsed=0:00:26.74    \nframe=    1 fps=0.0 q=36.2 size=       0KiB time=-00:00:00.03 bitrate=N/A speed=N/A elapsed=0:00:27.28    \nframe=    1 fps=0.0 q=36.2 size=       0KiB time=-00:00:00.03 bitrate=N/A speed=N/A elapsed=0:00:27.87    \nframe=    1 fps=0.0 q=36.2 size=       0KiB time=-00:00:00.03 bitrate=N/A speed=N/A elapsed=0:00:28.40    \nframe=    2 fps=0.1 q=43.4 size=       0KiB time=00:00:00.00 bitrate=N/A speed=   0x elapsed=0:00:28.95    \nframe=    2 fps=0.1 q=43.4 size=       0KiB time=00:00:00.00 bitrate=N/A speed=   0x elapsed=0:00:29.52    \nframe=    2 fps=0.1 q=43.4 size=       0KiB time=00:00:00.00 bitrate=N/A speed=   0x elapsed=0:00:30.07    \nframe=    3 fps=0.1 q=48.6 size=       0KiB time=00:00:00.03 bitrate=  10.6kbits/s speed=0.00109x elapsed=0:00:30.63    \nframe=    3 fps=0.1 q=48.6 size=       0KiB time=00:00:00.03 bitrate=  10.6kbits/s speed=0.00107x elapsed=0:00:31.17    \nframe=    4 fps=0.1 q=49.6 size=       0KiB time=00:00:00.06 bitrate=   5.3kbits/s speed=0.0021x elapsed=0:00:31.70    \nframe=    4 fps=0.1 q=49.6 size=       0KiB time=00:00:00.06 bitrate=   5.3kbits/s speed=0.00207x elapsed=0:00:32.24    \nframe=    5 fps=0.2 q=46.7 size=       0KiB time=00:00:00.06 bitrate=   5.3kbits/s speed=0.00203x elapsed=0:00:32.77    \nframe=    5 fps=0.1 q=46.7 size=       0KiB time=00:00:00.10 bitrate=   3.5kbits/s speed=0.003x elapsed=0:00:33.35    \nframe=    5 fps=0.1 q=46.7 size=       0KiB time=00:00:00.10 bitrate=   3.5kbits/s speed=0.00295x elapsed=0:00:33.88    \nframe=    5 fps=0.1 q=46.7 size=       0KiB time=00:00:00.10 bitrate=   3.5kbits/s speed=0.0029x elapsed=0:00:34.49    \nframe=    5 fps=0.1 q=46.7 size=       0KiB time=00:00:00.10 bitrate=   3.5kbits/s speed=0.00285x elapsed=0:00:35.05    \nframe=    5 fps=0.1 q=46.7 size=       0KiB time=00:00:00.10 bitrate=   3.5kbits/s speed=0.00281x elapsed=0:00:35.62    \nframe=    5 fps=0.1 q=46.7 size=       0KiB time=00:00:00.10 bitrate=   3.5kbits/s speed=0.00276x elapsed=0:00:36.20    \nframe=    5 fps=0.1 q=46.7 size=       0KiB time=00:00:00.10 bitrate=   3.5kbits/s speed=0.00272x elapsed=0:00:36.77    \nframe=    5 fps=0.1 q=46.7 size=       0KiB time=00:00:00.10 bitrate=   3.5kbits/s speed=0.00267x elapsed=0:00:37.38    \nframe=    5 fps=0.1 q=46.7 size=       0KiB time=00:00:00.10 bitrate=   3.5kbits/s speed=0.00263x elapsed=0:00:37.96    \nframe=    5 fps=0.1 q=46.7 size=       0KiB time=00:00:00.10 bitrate=   3.5kbits/s speed=0.00259x elapsed=0:00:38.53    \nframe=    5 fps=0.1 q=46.7 size=       0KiB time=00:00:00.10 bitrate=   3.5kbits/s speed=0.00256x elapsed=0:00:39.09    \nframe=    5 fps=0.1 q=46.7 size=       0KiB time=00:00:00.10 bitrate=   3.5kbits/s speed=0.00252x elapsed=0:00:39.66    \nframe=    5 fps=0.1 q=46.7 size=       0KiB time=00:00:00.10 bitrate=   3.5kbits/s speed=0.00249x elapsed=0:00:40.21    \nframe=    5 fps=0.1 q=46.7 size=       0KiB time=00:00:00.10 bitrate=   3.5kbits/s speed=0.00245x elapsed=0:00:40.74    \nframe=    5 fps=0.1 q=46.7 size=       0KiB time=00:00:00.10 bitrate=   3.5kbits/s speed=0.00242x elapsed=0:00:41.28    \nframe=    6 fps=0.1 q=45.7 size=       0KiB time=00:00:00.13 bitrate=   2.6kbits/s speed=0.00319x elapsed=0:00:41.80    \nframe=    6 fps=0.1 q=45.7 size=       0KiB time=00:00:00.13 bitrate=   2.6kbits/s speed=0.00315x elapsed=0:00:42.34    \nframe=    6 fps=0.1 q=45.7 size=       0KiB time=00:00:00.13 bitrate=   2.6kbits/s speed=0.00311x elapsed=0:00:42.87    \nframe=    6 fps=0.1 q=45.7 size=       0KiB time=00:00:00.13 bitrate=   2.6kbits/s speed=0.00307x elapsed=0:00:43.40    \nframe=    6 fps=0.1 q=45.7 size=       0KiB time=00:00:00.13 bitrate=   2.6kbits/s speed=0.00303x elapsed=0:00:43.93    \nframe=    7 fps=0.2 q=41.3 size=       0KiB time=00:00:00.16 bitrate=   2.1kbits/s speed=0.00375x elapsed=0:00:44.45    \nframe=    7 fps=0.2 q=41.3 size=       0KiB time=00:00:00.16 bitrate=   2.1kbits/s speed=0.0037x elapsed=0:00:45.00    \nframe=    7 fps=0.2 q=41.3 size=       0KiB time=00:00:00.16 bitrate=   2.1kbits/s speed=0.00366x elapsed=0:00:45.57    \nframe=    7 fps=0.2 q=41.3 size=       0KiB time=00:00:00.16 bitrate=   2.1kbits/s speed=0.00362x elapsed=0:00:46.09    \nframe=    9 fps=0.2 q=45.2 size=       0KiB time=00:00:00.23 bitrate=   1.5kbits/s speed=0.005x elapsed=0:00:46.63    \nframe=    9 fps=0.2 q=45.2 size=       0KiB time=00:00:00.23 bitrate=   1.5kbits/s speed=0.00495x elapsed=0:00:47.16    \nframe=    9 fps=0.2 q=45.2 size=       0KiB time=00:00:00.23 bitrate=   1.5kbits/s speed=0.00489x elapsed=0:00:47.68    \nframe=    9 fps=0.2 q=45.2 size=       0KiB time=00:00:00.23 bitrate=   1.5kbits/s speed=0.00484x elapsed=0:00:48.20    \nframe=    9 fps=0.2 q=45.2 size=       0KiB time=00:00:00.23 bitrate=   1.5kbits/s speed=0.00479x elapsed=0:00:48.73    \nframe=   10 fps=0.2 q=44.5 size=       0KiB time=00:00:00.26 bitrate=   1.3kbits/s speed=0.00541x elapsed=0:00:49.26    \nframe=   10 fps=0.2 q=44.5 size=       0KiB time=00:00:00.26 bitrate=   1.3kbits/s speed=0.00536x elapsed=0:00:49.77    \nframe=   10 fps=0.2 q=44.5 size=       0KiB time=00:00:00.26 bitrate=   1.3kbits/s speed=0.0053x elapsed=0:00:50.29    \nframe=   11 fps=0.2 q=43.8 size=       0KiB time=00:00:00.30 bitrate=   1.2kbits/s speed=0.0059x elapsed=0:00:50.82    \nframe=   11 fps=0.2 q=43.8 size=       0KiB time=00:00:00.30 bitrate=   1.2kbits/s speed=0.00584x elapsed=0:00:51.36    \nframe=   11 fps=0.2 q=43.8 size=       0KiB time=00:00:00.30 bitrate=   1.2kbits/s speed=0.00578x elapsed=0:00:51.88    \nframe=   11 fps=0.2 q=43.8 size=       0KiB time=00:00:00.30 bitrate=   1.2kbits/s speed=0.00572x elapsed=0:00:52.41    \nframe=   12 fps=0.2 q=38.4 size=       0KiB time=00:00:00.33 bitrate=   1.1kbits/s speed=0.00629x elapsed=0:00:52.96    \nframe=   13 fps=0.2 q=41.4 size=       0KiB time=00:00:00.36 bitrate=   1.0kbits/s speed=0.00685x elapsed=0:00:53.50    \nframe=   13 fps=0.2 q=41.4 size=       0KiB time=00:00:00.36 bitrate=   1.0kbits/s speed=0.00679x elapsed=0:00:54.02    \nframe=   13 fps=0.2 q=41.4 size=       0KiB time=00:00:00.36 bitrate=   1.0kbits/s speed=0.00672x elapsed=0:00:54.54    \nframe=   13 fps=0.2 q=41.4 size=       0KiB time=00:00:00.36 bitrate=   1.0kbits/s speed=0.00666x elapsed=0:00:55.07    \nframe=   13 fps=0.2 q=41.4 size=       0KiB time=00:00:00.36 bitrate=   1.0kbits/s speed=0.00659x elapsed=0:00:55.61    \nframe=   13 fps=0.2 q=41.4 size=       0KiB time=00:00:00.36 bitrate=   1.0kbits/s speed=0.00653x elapsed=0:00:56.13    \nframe=   13 fps=0.2 q=41.4 size=       0KiB time=00:00:00.36 bitrate=   1.0kbits/s speed=0.00647x elapsed=0:00:56.66    \nframe=   14 fps=0.2 q=42.7 size=       0KiB time=00:00:00.40 bitrate=   0.9kbits/s speed=0.00699x elapsed=0:00:57.20    \nframe=   14 fps=0.2 q=42.7 size=       0KiB time=00:00:00.40 bitrate=   0.9kbits/s speed=0.00693x elapsed=0:00:57.73    \nframe=   14 fps=0.2 q=42.7 size=       0KiB time=00:00:00.40 bitrate=   0.9kbits/s speed=0.00687x elapsed=0:00:58.26    \nframe=   14 fps=0.2 q=42.7 size=       0KiB time=00:00:00.40 bitrate=   0.9kbits/s speed=0.0068x elapsed=0:00:58.80    \nframe=   14 fps=0.2 q=42.7 size=       0KiB time=00:00:00.40 bitrate=   0.9kbits/s speed=0.00674x elapsed=0:00:59.34    \nframe=   15 fps=0.3 q=42.4 size=       0KiB time=00:00:00.43 bitrate=   0.8kbits/s speed=0.00724x elapsed=0:00:59.86    \nframe=   15 fps=0.2 q=42.4 size=       0KiB time=00:00:00.43 bitrate=   0.8kbits/s speed=0.00718x elapsed=0:01:00.38    \nframe=   15 fps=0.2 q=42.4 size=       0KiB time=00:00:00.43 bitrate=   0.8kbits/s speed=0.00711x elapsed=0:01:00.92    \nframe=   16 fps=0.3 q=37.7 size=       0KiB time=00:00:00.46 bitrate=   0.8kbits/s speed=0.0076x elapsed=0:01:01.44    \nframe=   17 fps=0.3 q=41.8 size=       0KiB time=00:00:00.50 bitrate=   0.7kbits/s speed=0.00807x elapsed=0:01:01.97    \nframe=   17 fps=0.3 q=41.8 size=       0KiB time=00:00:00.50 bitrate=   0.7kbits/s speed=0.008x elapsed=0:01:02.50    \nframe=   17 fps=0.3 q=41.8 size=       0KiB time=00:00:00.50 bitrate=   0.7kbits/s speed=0.00793x elapsed=0:01:03.05    \nframe=   17 fps=0.3 q=41.8 size=       0KiB time=00:00:00.50 bitrate=   0.7kbits/s speed=0.00786x elapsed=0:01:03.58    \nframe=   17 fps=0.3 q=41.8 size=       0KiB time=00:00:00.50 bitrate=   0.7kbits/s speed=0.0078x elapsed=0:01:04.11    \nframe=   17 fps=0.3 q=41.8 size=       0KiB time=00:00:00.50 bitrate=   0.7kbits/s speed=0.00774x elapsed=0:01:04.63    \nframe=   18 fps=0.3 q=43.3 size=       0KiB time=00:00:00.53 bitrate=   0.7kbits/s speed=0.00818x elapsed=0:01:05.16    \nframe=   18 fps=0.3 q=43.3 size=       0KiB time=00:00:00.53 bitrate=   0.7kbits/s speed=0.00812x elapsed=0:01:05.67    \nframe=   18 fps=0.3 q=43.3 size=       0KiB time=00:00:00.53 bitrate=   0.7kbits/s speed=0.00806x elapsed=0:01:06.20    \nframe=   19 fps=0.3 q=43.1 size=       0KiB time=00:00:00.56 bitrate=   0.6kbits/s speed=0.00849x elapsed=0:01:06.71    \nframe=   19 fps=0.3 q=43.1 size=       0KiB time=00:00:00.56 bitrate=   0.6kbits/s speed=0.00843x elapsed=0:01:07.22    \nframe=   19 fps=0.3 q=43.1 size=       0KiB time=00:00:00.56 bitrate=   0.6kbits/s speed=0.00836x elapsed=0:01:07.74    \nframe=   19 fps=0.3 q=43.1 size=       0KiB time=00:00:00.56 bitrate=   0.6kbits/s speed=0.0083x elapsed=0:01:08.27    \nframe=   19 fps=0.3 q=43.1 size=       0KiB time=00:00:00.56 bitrate=   0.6kbits/s speed=0.00823x elapsed=0:01:08.81    \nframe=   19 fps=0.3 q=43.1 size=       0KiB time=00:00:00.56 bitrate=   0.6kbits/s speed=0.00817x elapsed=0:01:09.33    \nframe=   20 fps=0.3 q=43.1 size=       0KiB time=00:00:00.60 bitrate=   0.6kbits/s speed=0.00859x elapsed=0:01:09.86    \nframe=   20 fps=0.3 q=43.1 size=       0KiB time=00:00:00.60 bitrate=   0.6kbits/s speed=0.00852x elapsed=0:01:10.39    \nframe=   20 fps=0.3 q=43.1 size=       0KiB time=00:00:00.60 bitrate=   0.6kbits/s speed=0.00846x elapsed=0:01:10.91    \nframe=   20 fps=0.3 q=43.1 size=       0KiB time=00:00:00.60 bitrate=   0.6kbits/s speed=0.0084x elapsed=0:01:11.44    \nframe=   21 fps=0.3 q=36.9 size=       0KiB time=00:00:00.63 bitrate=   0.6kbits/s speed=0.0088x elapsed=0:01:11.95    \nframe=   22 fps=0.3 q=40.1 size=     256KiB time=00:00:00.66 bitrate=3146.3kbits/s speed=0.0092x elapsed=0:01:12.48    \nframe=   22 fps=0.3 q=40.1 size=     256KiB time=00:00:00.66 bitrate=3146.3kbits/s speed=0.00913x elapsed=0:01:13.01    \nframe=   22 fps=0.3 q=40.1 size=     256KiB time=00:00:00.66 bitrate=3146.3kbits/s speed=0.00907x elapsed=0:01:13.53    \nframe=   23 fps=0.3 q=43.3 size=     256KiB time=00:00:00.70 bitrate=2996.4kbits/s speed=0.00945x elapsed=0:01:14.08    \nframe=   23 fps=0.3 q=43.3 size=     256KiB time=00:00:00.70 bitrate=2996.4kbits/s speed=0.00938x elapsed=0:01:14.62    \nframe=   23 fps=0.3 q=43.3 size=     256KiB time=00:00:00.70 bitrate=2996.4kbits/s speed=0.00931x elapsed=0:01:15.17    \nframe=   23 fps=0.3 q=43.3 size=     256KiB time=00:00:00.70 bitrate=2996.4kbits/s speed=0.00925x elapsed=0:01:15.70    \nframe=   23 fps=0.3 q=43.3 size=     256KiB time=00:00:00.70 bitrate=2996.4kbits/s speed=0.00918x elapsed=0:01:16.26    \nframe=   23 fps=0.3 q=43.3 size=     256KiB time=00:00:00.70 bitrate=2996.4kbits/s speed=0.00912x elapsed=0:01:16.78    \nframe=   24 fps=0.3 q=43.3 size=     256KiB time=00:00:00.73 bitrate=2860.2kbits/s speed=0.00949x elapsed=0:01:17.29    \nframe=   24 fps=0.3 q=43.3 size=     256KiB time=00:00:00.73 bitrate=2860.2kbits/s speed=0.00943x elapsed=0:01:17.80    \nframe=   25 fps=0.3 q=37.2 size=     256KiB time=00:00:00.76 bitrate=2735.9kbits/s speed=0.00979x elapsed=0:01:18.32    \nframe=   26 fps=0.3 q=37.7 size=     256KiB time=00:00:00.80 bitrate=2621.9kbits/s speed=0.0101x elapsed=0:01:18.84    \nframe=   27 fps=0.3 q=43.3 size=     256KiB time=00:00:00.83 bitrate=2517.0kbits/s speed=0.0105x elapsed=0:01:19.35    \nframe=   27 fps=0.3 q=43.3 size=     256KiB time=00:00:00.83 bitrate=2517.0kbits/s speed=0.0104x elapsed=0:01:19.87    \nframe=   27 fps=0.3 q=43.3 size=     256KiB time=00:00:00.83 bitrate=2517.0kbits/s speed=0.0104x elapsed=0:01:20.40    \nframe=   27 fps=0.3 q=43.3 size=     256KiB time=00:00:00.83 bitrate=2517.0kbits/s speed=0.0103x elapsed=0:01:20.91    \nframe=   27 fps=0.3 q=43.3 size=     256KiB time=00:00:00.83 bitrate=2517.0kbits/s speed=0.0102x elapsed=0:01:21.43    \nframe=   27 fps=0.3 q=43.3 size=     256KiB time=00:00:00.83 bitrate=2517.0kbits/s speed=0.0102x elapsed=0:01:21.98    \nframe=   27 fps=0.3 q=43.3 size=     256KiB time=00:00:00.83 bitrate=2517.0kbits/s speed=0.0101x elapsed=0:01:22.54    \nframe=   28 fps=0.3 q=43.3 size=     256KiB time=00:00:00.86 bitrate=2420.2kbits/s speed=0.0104x elapsed=0:01:23.09    \nframe=   28 fps=0.3 q=43.3 size=     256KiB time=00:00:00.86 bitrate=2420.2kbits/s speed=0.0104x elapsed=0:01:23.67    \nframe=   28 fps=0.3 q=43.3 size=     256KiB time=00:00:00.86 bitrate=2420.2kbits/s speed=0.0103x elapsed=0:01:24.19    \nframe=   28 fps=0.3 q=43.3 size=     256KiB time=00:00:00.86 bitrate=2420.2kbits/s speed=0.0102x elapsed=0:01:24.72    \nframe=   29 fps=0.3 q=43.3 size=     256KiB time=00:00:00.90 bitrate=2330.6kbits/s speed=0.0106x elapsed=0:01:25.25    \nframe=   29 fps=0.3 q=43.3 size=     256KiB time=00:00:00.90 bitrate=2330.6kbits/s speed=0.0105x elapsed=0:01:25.78    \nframe=   29 fps=0.3 q=43.3 size=     256KiB time=00:00:00.90 bitrate=2330.6kbits/s speed=0.0104x elapsed=0:01:26.31    \nframe=   29 fps=0.3 q=43.3 size=     256KiB time=00:00:00.90 bitrate=2330.6kbits/s speed=0.0104x elapsed=0:01:26.83    \nframe=   30 fps=0.3 q=36.9 size=     256KiB time=00:00:00.93 bitrate=2247.3kbits/s speed=0.0107x elapsed=0:01:27.35    \nframe=   30 fps=0.3 q=36.9 size=     256KiB time=00:00:00.93 bitrate=2247.3kbits/s speed=0.0106x elapsed=0:01:27.88    \nframe=   31 fps=0.4 q=40.9 size=     256KiB time=00:00:00.96 bitrate=2169.8kbits/s speed=0.0109x elapsed=0:01:28.40    \nframe=   31 fps=0.3 q=40.9 size=     256KiB time=00:00:00.96 bitrate=2169.8kbits/s speed=0.0109x elapsed=0:01:28.94    \nframe=   31 fps=0.3 q=40.9 size=     256KiB time=00:00:00.96 bitrate=2169.8kbits/s speed=0.0108x elapsed=0:01:29.47    \nframe=   31 fps=0.3 q=40.9 size=     256KiB time=00:00:00.96 bitrate=2169.8kbits/s speed=0.0107x elapsed=0:01:29.99    \nframe=   32 fps=0.4 q=43.5 size=     256KiB time=00:00:01.00 bitrate=2097.5kbits/s speed=0.011x elapsed=0:01:30.50    \nframe=   32 fps=0.4 q=43.5 size=     256KiB time=00:00:01.00 bitrate=2097.5kbits/s speed=0.011x elapsed=0:01:31.03    \nframe=   32 fps=0.3 q=43.5 size=     256KiB time=00:00:01.00 bitrate=2097.5kbits/s speed=0.0109x elapsed=0:01:31.53    \nframe=   32 fps=0.3 q=43.5 size=     256KiB time=00:00:01.00 bitrate=2097.5kbits/s speed=0.0109x elapsed=0:01:32.06    \nframe=   33 fps=0.4 q=42.9 size=     256KiB time=00:00:01.03 bitrate=2029.8kbits/s speed=0.0112x elapsed=0:01:32.58    \nframe=   33 fps=0.4 q=42.9 size=     256KiB time=00:00:01.03 bitrate=2029.8kbits/s speed=0.0111x elapsed=0:01:33.14    \nframe=   33 fps=0.4 q=42.9 size=     256KiB time=00:00:01.03 bitrate=2029.8kbits/s speed=0.011x elapsed=0:01:33.66    \nframe=   34 fps=0.4 q=37.0 size=     256KiB time=00:00:01.06 bitrate=1966.4kbits/s speed=0.0113x elapsed=0:01:34.21    \nframe=   34 fps=0.4 q=37.0 size=     256KiB time=00:00:01.06 bitrate=1966.4kbits/s speed=0.0113x elapsed=0:01:34.75    \nframe=   35 fps=0.4 q=40.2 size=     256KiB time=00:00:01.10 bitrate=1906.8kbits/s speed=0.0115x elapsed=0:01:35.29    \nframe=   36 fps=0.4 q=43.0 size=     256KiB time=00:00:01.13 bitrate=1850.7kbits/s speed=0.0118x elapsed=0:01:35.79    \nframe=   36 fps=0.4 q=43.0 size=     256KiB time=00:00:01.13 bitrate=1850.7kbits/s speed=0.0118x elapsed=0:01:36.32    \nframe=   36 fps=0.4 q=43.0 size=     256KiB time=00:00:01.13 bitrate=1850.7kbits/s speed=0.0117x elapsed=0:01:36.83    \nframe=   37 fps=0.4 q=42.8 size=     256KiB time=00:00:01.16 bitrate=1797.9kbits/s speed=0.012x elapsed=0:01:37.36    \nframe=   37 fps=0.4 q=42.8 size=     256KiB time=00:00:01.16 bitrate=1797.9kbits/s speed=0.0119x elapsed=0:01:37.89    \nframe=   37 fps=0.4 q=42.8 size=     256KiB time=00:00:01.16 bitrate=1797.9kbits/s speed=0.0119x elapsed=0:01:38.43    \nframe=   38 fps=0.4 q=42.8 size=     256KiB time=00:00:01.20 bitrate=1747.9kbits/s speed=0.0121x elapsed=0:01:39.02    \nframe=   38 fps=0.4 q=42.8 size=     256KiB time=00:00:01.20 bitrate=1747.9kbits/s speed=0.0121x elapsed=0:01:39.57    \nframe=   38 fps=0.4 q=42.8 size=     256KiB time=00:00:01.20 bitrate=1747.9kbits/s speed=0.012x elapsed=0:01:40.13    \nframe=   39 fps=0.4 q=36.8 size=     256KiB time=00:00:01.23 bitrate=1700.7kbits/s speed=0.0123x elapsed=0:01:40.65    \nframe=   39 fps=0.4 q=36.8 size=     256KiB time=00:00:01.23 bitrate=1700.7kbits/s speed=0.0122x elapsed=0:01:41.19    \nframe=   39 fps=0.4 q=36.8 size=     256KiB time=00:00:01.23 bitrate=1700.7kbits/s speed=0.0121x elapsed=0:01:41.70    \nframe=   39 fps=0.4 q=36.8 size=     256KiB time=00:00:01.23 bitrate=1700.7kbits/s speed=0.0121x elapsed=0:01:42.22    \nframe=   39 fps=0.4 q=36.8 size=     256KiB time=00:00:01.23 bitrate=1700.7kbits/s speed=0.012x elapsed=0:01:42.74    \nframe=   39 fps=0.4 q=36.8 size=     256KiB time=00:00:01.23 bitrate=1700.7kbits/s speed=0.0119x elapsed=0:01:43.26    \nframe=   40 fps=0.4 q=39.5 size=     256KiB time=00:00:01.26 bitrate=1655.9kbits/s speed=0.0122x elapsed=0:01:43.79    \nframe=   40 fps=0.4 q=39.5 size=     256KiB time=00:00:01.26 bitrate=1655.9kbits/s speed=0.0121x elapsed=0:01:44.31    \nframe=   40 fps=0.4 q=39.5 size=     256KiB time=00:00:01.26 bitrate=1655.9kbits/s speed=0.0121x elapsed=0:01:44.86    \nframe=   40 fps=0.4 q=39.5 size=     256KiB time=00:00:01.26 bitrate=1655.9kbits/s speed=0.012x elapsed=0:01:45.46    \nframe=   40 fps=0.4 q=39.5 size=     256KiB time=00:00:01.26 bitrate=1655.9kbits/s speed=0.0119x elapsed=0:01:46.08    \nframe=   41 fps=0.4 q=42.6 size=     256KiB time=00:00:01.30 bitrate=1613.5kbits/s speed=0.0122x elapsed=0:01:46.63    \nframe=   41 fps=0.4 q=42.6 size=     256KiB time=00:00:01.30 bitrate=1613.5kbits/s speed=0.0121x elapsed=0:01:47.15    \nframe=   41 fps=0.4 q=42.6 size=     256KiB time=00:00:01.30 bitrate=1613.5kbits/s speed=0.0121x elapsed=0:01:47.67    \nframe=   41 fps=0.4 q=42.6 size=     256KiB time=00:00:01.30 bitrate=1613.5kbits/s speed=0.012x elapsed=0:01:48.22    \nframe=   41 fps=0.4 q=42.6 size=     256KiB time=00:00:01.30 bitrate=1613.5kbits/s speed=0.012x elapsed=0:01:48.74    \nframe=   42 fps=0.4 q=36.5 size=     256KiB time=00:00:01.33 bitrate=1573.1kbits/s speed=0.0122x elapsed=0:01:49.26    \nframe=   42 fps=0.4 q=36.5 size=     256KiB time=00:00:01.33 bitrate=1573.1kbits/s speed=0.0121x elapsed=0:01:49.79    \nframe=   42 fps=0.4 q=36.5 size=     256KiB time=00:00:01.33 bitrate=1573.1kbits/s speed=0.0121x elapsed=0:01:50.32    \nframe=   42 fps=0.4 q=36.5 size=     256KiB time=00:00:01.33 bitrate=1573.1kbits/s speed=0.012x elapsed=0:01:50.85    \nframe=   42 fps=0.4 q=36.5 size=     256KiB time=00:00:01.33 bitrate=1573.1kbits/s speed=0.012x elapsed=0:01:51.37    \nframe=   43 fps=0.4 q=39.9 size=     256KiB time=00:00:01.36 bitrate=1534.8kbits/s speed=0.0122x elapsed=0:01:51.91    \nframe=   43 fps=0.4 q=39.9 size=     256KiB time=00:00:01.36 bitrate=1534.8kbits/s speed=0.0122x elapsed=0:01:52.44    \nframe=   43 fps=0.4 q=39.9 size=     256KiB time=00:00:01.36 bitrate=1534.8kbits/s speed=0.0121x elapsed=0:01:52.97    \nframe=   43 fps=0.4 q=39.9 size=     256KiB time=00:00:01.36 bitrate=1534.8kbits/s speed=0.012x elapsed=0:01:53.50    \nframe=   43 fps=0.4 q=39.9 size=     256KiB time=00:00:01.36 bitrate=1534.8kbits/s speed=0.012x elapsed=0:01:54.03    \nframe=   43 fps=0.4 q=39.9 size=     256KiB time=00:00:01.36 bitrate=1534.8kbits/s speed=0.0119x elapsed=0:01:54.58    \nframe=   43 fps=0.4 q=39.9 size=     256KiB time=00:00:01.36 bitrate=1534.8kbits/s speed=0.0119x elapsed=0:01:55.10    \nframe=   44 fps=0.4 q=42.0 size=     256KiB time=00:00:01.40 bitrate=1498.2kbits/s speed=0.0121x elapsed=0:01:55.63    \nframe=   44 fps=0.4 q=42.0 size=     256KiB time=00:00:01.40 bitrate=1498.2kbits/s speed=0.0121x elapsed=0:01:56.16    \nframe=   44 fps=0.4 q=42.0 size=     256KiB time=00:00:01.40 bitrate=1498.2kbits/s speed=0.012x elapsed=0:01:56.68    \nframe=   44 fps=0.4 q=42.0 size=     256KiB time=00:00:01.40 bitrate=1498.2kbits/s speed=0.0119x elapsed=0:01:57.22    \nframe=   44 fps=0.4 q=42.0 size=     256KiB time=00:00:01.40 bitrate=1498.2kbits/s speed=0.0119x elapsed=0:01:57.75    \nframe=   45 fps=0.4 q=42.3 size=     256KiB time=00:00:01.43 bitrate=1463.4kbits/s speed=0.0121x elapsed=0:01:58.27    \nframe=   45 fps=0.4 q=42.3 size=     256KiB time=00:00:01.43 bitrate=1463.4kbits/s speed=0.0121x elapsed=0:01:58.80    \nframe=   45 fps=0.4 q=42.3 size=     256KiB time=00:00:01.43 bitrate=1463.4kbits/s speed=0.012x elapsed=0:01:59.32    \nframe=   45 fps=0.4 q=42.3 size=     256KiB time=00:00:01.43 bitrate=1463.4kbits/s speed=0.012x elapsed=0:01:59.85    \nframe=   46 fps=0.4 q=37.0 size=     256KiB time=00:00:01.46 bitrate=1430.1kbits/s speed=0.0122x elapsed=0:02:00.37    \nframe=   46 fps=0.4 q=37.0 size=     256KiB time=00:00:01.46 bitrate=1430.1kbits/s speed=0.0121x elapsed=0:02:00.90    \nframe=   46 fps=0.4 q=37.0 size=     256KiB time=00:00:01.46 bitrate=1430.1kbits/s speed=0.0121x elapsed=0:02:01.46    \nframe=   47 fps=0.4 q=40.8 size=     512KiB time=00:00:01.50 bitrate=2796.4kbits/s speed=0.0123x elapsed=0:02:01.97    \nframe=   47 fps=0.4 q=40.8 size=     512KiB time=00:00:01.50 bitrate=2796.4kbits/s speed=0.0122x elapsed=0:02:02.50    \nframe=   47 fps=0.4 q=40.8 size=     512KiB time=00:00:01.50 bitrate=2796.4kbits/s speed=0.0122x elapsed=0:02:03.02    \nframe=   48 fps=0.4 q=42.0 size=     512KiB time=00:00:01.53 bitrate=2735.6kbits/s speed=0.0124x elapsed=0:02:03.55    \nframe=   48 fps=0.4 q=42.0 size=     512KiB time=00:00:01.53 bitrate=2735.6kbits/s speed=0.0124x elapsed=0:02:04.08    \nframe=   48 fps=0.4 q=42.0 size=     512KiB time=00:00:01.53 bitrate=2735.6kbits/s speed=0.0123x elapsed=0:02:04.61    \nframe=   48 fps=0.4 q=42.0 size=     512KiB time=00:00:01.53 bitrate=2735.6kbits/s speed=0.0123x elapsed=0:02:05.15    \nframe=   48 fps=0.4 q=42.0 size=     512KiB time=00:00:01.53 bitrate=2735.6kbits/s speed=0.0122x elapsed=0:02:05.66    \nframe=   48 fps=0.4 q=42.0 size=     512KiB time=00:00:01.53 bitrate=2735.6kbits/s speed=0.0122x elapsed=0:02:06.19    \nframe=   48 fps=0.4 q=42.0 size=     512KiB time=00:00:01.53 bitrate=2735.6kbits/s speed=0.0121x elapsed=0:02:06.70    \nframe=   48 fps=0.4 q=42.0 size=     512KiB time=00:00:01.53 bitrate=2735.6kbits/s speed=0.0121x elapsed=0:02:07.23    \nframe=   49 fps=0.4 q=42.4 size=     512KiB time=00:00:01.56 bitrate=2677.4kbits/s speed=0.0123x elapsed=0:02:07.76    \nframe=   49 fps=0.4 q=42.4 size=     512KiB time=00:00:01.56 bitrate=2677.4kbits/s speed=0.0122x elapsed=0:02:08.29    \nframe=   49 fps=0.4 q=42.4 size=     512KiB time=00:00:01.56 bitrate=2677.4kbits/s speed=0.0122x elapsed=0:02:08.83    \nframe=   49 fps=0.4 q=42.4 size=     512KiB time=00:00:01.56 bitrate=2677.4kbits/s speed=0.0121x elapsed=0:02:09.37    \nframe=   50 fps=0.4 q=41.7 size=     512KiB time=00:00:01.60 bitrate=2621.7kbits/s speed=0.0123x elapsed=0:02:09.90    \nframe=   50 fps=0.4 q=41.7 size=     512KiB time=00:00:01.60 bitrate=2621.7kbits/s speed=0.0123x elapsed=0:02:10.41    \nframe=   51 fps=0.4 q=36.8 size=     512KiB time=00:00:01.63 bitrate=2568.2kbits/s speed=0.0125x elapsed=0:02:10.94    \nframe=   51 fps=0.4 q=36.8 size=     512KiB time=00:00:01.63 bitrate=2568.2kbits/s speed=0.0124x elapsed=0:02:11.48    \nframe=   51 fps=0.4 q=36.8 size=     512KiB time=00:00:01.63 bitrate=2568.2kbits/s speed=0.0124x elapsed=0:02:12.01    \nframe=   51 fps=0.4 q=36.8 size=     512KiB time=00:00:01.63 bitrate=2568.2kbits/s speed=0.0123x elapsed=0:02:12.55    \nframe=   52 fps=0.4 q=39.9 size=     512KiB time=00:00:01.66 bitrate=2516.8kbits/s speed=0.0125x elapsed=0:02:13.08    \nframe=   52 fps=0.4 q=39.9 size=     512KiB time=00:00:01.66 bitrate=2516.8kbits/s speed=0.0125x elapsed=0:02:13.61    \nframe=   53 fps=0.4 q=42.4 size=     512KiB time=00:00:01.70 bitrate=2467.4kbits/s speed=0.0127x elapsed=0:02:14.13    \nframe=   54 fps=0.4 q=36.9 size=     512KiB time=00:00:01.73 bitrate=2420.0kbits/s speed=0.0129x elapsed=0:02:14.68    \nframe=   54 fps=0.4 q=36.9 size=     512KiB time=00:00:01.73 bitrate=2420.0kbits/s speed=0.0128x elapsed=0:02:15.23    \nframe=   54 fps=0.4 q=36.9 size=     512KiB time=00:00:01.73 bitrate=2420.0kbits/s speed=0.0128x elapsed=0:02:15.77    \nframe=   54 fps=0.4 q=36.9 size=     512KiB time=00:00:01.73 bitrate=2420.0kbits/s speed=0.0127x elapsed=0:02:16.30    \nframe=   55 fps=0.4 q=41.4 size=     512KiB time=00:00:01.76 bitrate=2374.3kbits/s speed=0.0129x elapsed=0:02:16.81    \nframe=   55 fps=0.4 q=41.4 size=     512KiB time=00:00:01.76 bitrate=2374.3kbits/s speed=0.0129x elapsed=0:02:17.33    \nframe=   55 fps=0.4 q=41.4 size=     512KiB time=00:00:01.76 bitrate=2374.3kbits/s speed=0.0128x elapsed=0:02:17.90    \nframe=   55 fps=0.4 q=41.4 size=     512KiB time=00:00:01.76 bitrate=2374.3kbits/s speed=0.0128x elapsed=0:02:18.43    \nframe=   55 fps=0.4 q=41.4 size=     512KiB time=00:00:01.76 bitrate=2374.3kbits/s speed=0.0127x elapsed=0:02:19.03    \nframe=   55 fps=0.4 q=41.4 size=     512KiB time=00:00:01.76 bitrate=2374.3kbits/s speed=0.0127x elapsed=0:02:19.58    \nframe=   55 fps=0.4 q=41.4 size=     512KiB time=00:00:01.76 bitrate=2374.3kbits/s speed=0.0126x elapsed=0:02:20.10    \nframe=   56 fps=0.4 q=42.7 size=     512KiB time=00:00:01.80 bitrate=2330.4kbits/s speed=0.0128x elapsed=0:02:20.62    \nframe=   56 fps=0.4 q=42.7 size=     512KiB time=00:00:01.80 bitrate=2330.4kbits/s speed=0.0128x elapsed=0:02:21.15    \nframe=   57 fps=0.4 q=36.8 size=     512KiB time=00:00:01.83 bitrate=2288.0kbits/s speed=0.0129x elapsed=0:02:21.66    \nframe=   58 fps=0.4 q=39.9 size=     512KiB time=00:00:01.86 bitrate=2247.1kbits/s speed=0.0131x elapsed=0:02:22.20    \nframe=   58 fps=0.4 q=39.9 size=     512KiB time=00:00:01.86 bitrate=2247.1kbits/s speed=0.0131x elapsed=0:02:22.70    \nframe=   58 fps=0.4 q=39.9 size=     512KiB time=00:00:01.86 bitrate=2247.1kbits/s speed=0.013x elapsed=0:02:23.23    \nframe=   58 fps=0.4 q=39.9 size=     512KiB time=00:00:01.86 bitrate=2247.1kbits/s speed=0.013x elapsed=0:02:23.76    \nframe=   59 fps=0.4 q=42.2 size=     512KiB time=00:00:01.90 bitrate=2207.7kbits/s speed=0.0132x elapsed=0:02:24.27    \nframe=   59 fps=0.4 q=42.2 size=     512KiB time=00:00:01.90 bitrate=2207.7kbits/s speed=0.0131x elapsed=0:02:24.78    \nframe=   60 fps=0.4 q=41.8 size=     512KiB time=00:00:01.93 bitrate=2169.7kbits/s speed=0.0133x elapsed=0:02:25.30    \nframe=   61 fps=0.4 q=37.6 size=     512KiB time=00:00:01.96 bitrate=2132.9kbits/s speed=0.0135x elapsed=0:02:25.81    \nframe=   61 fps=0.4 q=37.6 size=     512KiB time=00:00:01.96 bitrate=2132.9kbits/s speed=0.0134x elapsed=0:02:26.34    \nframe=   61 fps=0.4 q=37.6 size=     512KiB time=00:00:01.96 bitrate=2132.9kbits/s speed=0.0134x elapsed=0:02:26.87    \nframe=   61 fps=0.4 q=37.6 size=     512KiB time=00:00:01.96 bitrate=2132.9kbits/s speed=0.0133x elapsed=0:02:27.43    \nframe=   61 fps=0.4 q=37.6 size=     512KiB time=00:00:01.96 bitrate=2132.9kbits/s speed=0.0133x elapsed=0:02:28.00    \nframe=   62 fps=0.4 q=39.6 size=     512KiB time=00:00:02.00 bitrate=2097.3kbits/s speed=0.0135x elapsed=0:02:28.56    \nframe=   62 fps=0.4 q=39.6 size=     512KiB time=00:00:02.00 bitrate=2097.3kbits/s speed=0.0134x elapsed=0:02:29.09    \nframe=   62 fps=0.4 q=39.6 size=     512KiB time=00:00:02.00 bitrate=2097.3kbits/s speed=0.0134x elapsed=0:02:29.67    \nframe=   62 fps=0.4 q=39.6 size=     512KiB time=00:00:02.00 bitrate=2097.3kbits/s speed=0.0133x elapsed=0:02:30.26    \nframe=   62 fps=0.4 q=39.6 size=     512KiB time=00:00:02.00 bitrate=2097.3kbits/s speed=0.0133x elapsed=0:02:30.80    \nframe=   62 fps=0.4 q=39.6 size=     512KiB time=00:00:02.00 bitrate=2097.3kbits/s speed=0.0132x elapsed=0:02:31.37    \nframe=   63 fps=0.4 q=42.9 size=     512KiB time=00:00:02.03 bitrate=2062.9kbits/s speed=0.0134x elapsed=0:02:31.89    \nframe=   64 fps=0.4 q=42.9 size=     512KiB time=00:00:02.06 bitrate=2029.7kbits/s speed=0.0136x elapsed=0:02:32.40    \nframe=   64 fps=0.4 q=42.9 size=     512KiB time=00:00:02.06 bitrate=2029.7kbits/s speed=0.0135x elapsed=0:02:32.91    \nframe=   64 fps=0.4 q=42.9 size=     512KiB time=00:00:02.06 bitrate=2029.7kbits/s speed=0.0135x elapsed=0:02:33.46    \nframe=   64 fps=0.4 q=42.9 size=     512KiB time=00:00:02.06 bitrate=2029.7kbits/s speed=0.0134x elapsed=0:02:33.98    \nframe=   65 fps=0.4 q=42.6 size=     512KiB time=00:00:02.10 bitrate=1997.5kbits/s speed=0.0136x elapsed=0:02:34.49    \nframe=   66 fps=0.4 q=37.0 size=     512KiB time=00:00:02.13 bitrate=1966.2kbits/s speed=0.0138x elapsed=0:02:35.01    \nframe=   66 fps=0.4 q=37.0 size=     512KiB time=00:00:02.13 bitrate=1966.2kbits/s speed=0.0137x elapsed=0:02:35.54    \nframe=   66 fps=0.4 q=37.0 size=     512KiB time=00:00:02.13 bitrate=1966.2kbits/s speed=0.0137x elapsed=0:02:36.05    \nframe=   67 fps=0.4 q=37.4 size=     512KiB time=00:00:02.16 bitrate=1936.0kbits/s speed=0.0138x elapsed=0:02:36.57    \nframe=   67 fps=0.4 q=37.4 size=     512KiB time=00:00:02.16 bitrate=1936.0kbits/s speed=0.0138x elapsed=0:02:37.08    \nframe=   67 fps=0.4 q=37.4 size=     512KiB time=00:00:02.16 bitrate=1936.0kbits/s speed=0.0137x elapsed=0:02:37.60    \nframe=   68 fps=0.4 q=41.8 size=     768KiB time=00:00:02.20 bitrate=2859.9kbits/s speed=0.0139x elapsed=0:02:38.11    \nframe=   69 fps=0.4 q=43.0 size=     768KiB time=00:00:02.23 bitrate=2817.2kbits/s speed=0.0141x elapsed=0:02:38.64    \nframe=   69 fps=0.4 q=43.0 size=     768KiB time=00:00:02.23 bitrate=2817.2kbits/s speed=0.014x elapsed=0:02:39.16    \nframe=   70 fps=0.4 q=43.4 size=     768KiB time=00:00:02.26 bitrate=2775.8kbits/s speed=0.0142x elapsed=0:02:39.70    \nframe=   71 fps=0.4 q=43.1 size=     768KiB time=00:00:02.30 bitrate=2735.6kbits/s speed=0.0144x elapsed=0:02:40.20    \nframe=   71 fps=0.4 q=43.1 size=     768KiB time=00:00:02.30 bitrate=2735.6kbits/s speed=0.0143x elapsed=0:02:40.72    \nframe=   71 fps=0.4 q=43.1 size=     768KiB time=00:00:02.30 bitrate=2735.6kbits/s speed=0.0143x elapsed=0:02:41.24    \nframe=   72 fps=0.4 q=36.9 size=     768KiB time=00:00:02.33 bitrate=2696.5kbits/s speed=0.0144x elapsed=0:02:41.79    \nframe=   73 fps=0.4 q=40.4 size=     768KiB time=00:00:02.36 bitrate=2658.5kbits/s speed=0.0146x elapsed=0:02:42.33    \nframe=   73 fps=0.4 q=40.4 size=     768KiB time=00:00:02.36 bitrate=2658.5kbits/s speed=0.0145x elapsed=0:02:42.85    \nframe=   74 fps=0.5 q=42.6 size=     768KiB time=00:00:02.40 bitrate=2621.6kbits/s speed=0.0147x elapsed=0:02:43.39    \nframe=   74 fps=0.5 q=42.6 size=     768KiB time=00:00:02.40 bitrate=2621.6kbits/s speed=0.0146x elapsed=0:02:43.92    \nframe=   75 fps=0.5 q=42.8 size=     768KiB time=00:00:02.43 bitrate=2585.7kbits/s speed=0.0148x elapsed=0:02:44.44    \nframe=   75 fps=0.5 q=42.8 size=     768KiB time=00:00:02.43 bitrate=2585.7kbits/s speed=0.0148x elapsed=0:02:44.96    \nframe=   76 fps=0.5 q=37.1 size=     768KiB time=00:00:02.46 bitrate=2550.7kbits/s speed=0.0149x elapsed=0:02:45.48    \nframe=   76 fps=0.5 q=37.1 size=     768KiB time=00:00:02.46 bitrate=2550.7kbits/s speed=0.0149x elapsed=0:02:46.00    \nframe=   76 fps=0.5 q=37.1 size=     768KiB time=00:00:02.46 bitrate=2550.7kbits/s speed=0.0148x elapsed=0:02:46.52    \nframe=   77 fps=0.5 q=40.3 size=     768KiB time=00:00:02.50 bitrate=2516.7kbits/s speed=0.015x elapsed=0:02:47.03    \nframe=   78 fps=0.5 q=43.0 size=     768KiB time=00:00:02.53 bitrate=2483.6kbits/s speed=0.0151x elapsed=0:02:47.58    \nframe=   78 fps=0.5 q=43.0 size=     768KiB time=00:00:02.53 bitrate=2483.6kbits/s speed=0.0151x elapsed=0:02:48.09    \nframe=   78 fps=0.5 q=43.0 size=     768KiB time=00:00:02.53 bitrate=2483.6kbits/s speed=0.015x elapsed=0:02:48.63    \nframe=   78 fps=0.5 q=43.0 size=     768KiB time=00:00:02.53 bitrate=2483.6kbits/s speed=0.015x elapsed=0:02:49.16    \nframe=   78 fps=0.5 q=43.0 size=     768KiB time=00:00:02.53 bitrate=2483.6kbits/s speed=0.0149x elapsed=0:02:49.68    \nframe=   79 fps=0.5 q=42.7 size=     768KiB time=00:00:02.56 bitrate=2451.4kbits/s speed=0.0151x elapsed=0:02:50.20    \nframe=   79 fps=0.5 q=42.7 size=     768KiB time=00:00:02.56 bitrate=2451.4kbits/s speed=0.015x elapsed=0:02:50.72    \nframe=   80 fps=0.5 q=43.4 size=     768KiB time=00:00:02.60 bitrate=2419.9kbits/s speed=0.0152x elapsed=0:02:51.23    \nframe=   81 fps=0.5 q=37.1 size=     768KiB time=00:00:02.63 bitrate=2389.3kbits/s speed=0.0153x elapsed=0:02:51.77    \nframe=   81 fps=0.5 q=37.1 size=     768KiB time=00:00:02.63 bitrate=2389.3kbits/s speed=0.0153x elapsed=0:02:52.29    \nframe=   81 fps=0.5 q=37.1 size=     768KiB time=00:00:02.63 bitrate=2389.3kbits/s speed=0.0152x elapsed=0:02:52.80    \nframe=   82 fps=0.5 q=40.6 size=     768KiB time=00:00:02.66 bitrate=2359.4kbits/s speed=0.0154x elapsed=0:02:53.31    \nframe=   82 fps=0.5 q=40.6 size=     768KiB time=00:00:02.66 bitrate=2359.4kbits/s speed=0.0153x elapsed=0:02:53.84    \nframe=   83 fps=0.5 q=43.3 size=     768KiB time=00:00:02.70 bitrate=2330.3kbits/s speed=0.0155x elapsed=0:02:54.36    \nframe=   83 fps=0.5 q=43.3 size=     768KiB time=00:00:02.70 bitrate=2330.3kbits/s speed=0.0154x elapsed=0:02:54.88    \nframe=   83 fps=0.5 q=43.3 size=     768KiB time=00:00:02.70 bitrate=2330.3kbits/s speed=0.0154x elapsed=0:02:55.40    \nframe=   83 fps=0.5 q=43.3 size=     768KiB time=00:00:02.70 bitrate=2330.3kbits/s speed=0.0153x elapsed=0:02:55.91    \nframe=   84 fps=0.5 q=43.0 size=     768KiB time=00:00:02.73 bitrate=2301.9kbits/s speed=0.0155x elapsed=0:02:56.42    \nframe=   84 fps=0.5 q=43.0 size=     768KiB time=00:00:02.73 bitrate=2301.9kbits/s speed=0.0154x elapsed=0:02:56.95    \nframe=   85 fps=0.5 q=37.6 size=     768KiB time=00:00:02.76 bitrate=2274.1kbits/s speed=0.0156x elapsed=0:02:57.47    \nframe=   85 fps=0.5 q=37.6 size=     768KiB time=00:00:02.76 bitrate=2274.1kbits/s speed=0.0155x elapsed=0:02:57.98    \nframe=   86 fps=0.5 q=38.4 size=    1024KiB time=00:00:02.80 bitrate=2996.1kbits/s speed=0.0157x elapsed=0:02:58.50    \nframe=   86 fps=0.5 q=38.4 size=    1024KiB time=00:00:02.80 bitrate=2996.1kbits/s speed=0.0156x elapsed=0:02:59.02    \nframe=   87 fps=0.5 q=43.4 size=    1024KiB time=00:00:02.83 bitrate=2960.8kbits/s speed=0.0158x elapsed=0:02:59.53    \nframe=   87 fps=0.5 q=43.4 size=    1024KiB time=00:00:02.83 bitrate=2960.8kbits/s speed=0.0157x elapsed=0:03:00.05    \nframe=   88 fps=0.5 q=43.3 size=    1024KiB time=00:00:02.86 bitrate=2926.4kbits/s speed=0.0159x elapsed=0:03:00.57    \nframe=   88 fps=0.5 q=43.3 size=    1024KiB time=00:00:02.86 bitrate=2926.4kbits/s speed=0.0158x elapsed=0:03:01.09    \nframe=   88 fps=0.5 q=43.3 size=    1024KiB time=00:00:02.86 bitrate=2926.4kbits/s speed=0.0158x elapsed=0:03:01.61    \nframe=   89 fps=0.5 q=43.8 size=    1024KiB time=00:00:02.90 bitrate=2892.7kbits/s speed=0.0159x elapsed=0:03:02.14    \nframe=   89 fps=0.5 q=43.8 size=    1024KiB time=00:00:02.90 bitrate=2892.7kbits/s speed=0.0159x elapsed=0:03:02.67    \nframe=   89 fps=0.5 q=43.8 size=    1024KiB time=00:00:02.90 bitrate=2892.7kbits/s speed=0.0158x elapsed=0:03:03.19    \nframe=   90 fps=0.5 q=37.3 size=    1024KiB time=00:00:02.93 bitrate=2859.9kbits/s speed=0.016x elapsed=0:03:03.71    \nframe=   90 fps=0.5 q=37.3 size=    1024KiB time=00:00:02.93 bitrate=2859.9kbits/s speed=0.0159x elapsed=0:03:04.23    \nframe=   91 fps=0.5 q=40.8 size=    1024KiB time=00:00:02.96 bitrate=2827.7kbits/s speed=0.0161x elapsed=0:03:04.76    \nframe=   91 fps=0.5 q=40.8 size=    1024KiB time=00:00:02.96 bitrate=2827.7kbits/s speed=0.016x elapsed=0:03:05.31    \nframe=   91 fps=0.5 q=40.8 size=    1024KiB time=00:00:02.96 bitrate=2827.7kbits/s speed=0.016x elapsed=0:03:05.84    \nframe=   91 fps=0.5 q=40.8 size=    1024KiB time=00:00:02.96 bitrate=2827.7kbits/s speed=0.0159x elapsed=0:03:06.38    \nframe=   92 fps=0.5 q=43.5 size=    1024KiB time=00:00:03.00 bitrate=2796.3kbits/s speed=0.0161x elapsed=0:03:06.90    \nframe=   92 fps=0.5 q=43.5 size=    1024KiB time=00:00:03.00 bitrate=2796.3kbits/s speed=0.016x elapsed=0:03:07.43    \nframe=   93 fps=0.5 q=43.5 size=    1024KiB time=00:00:03.03 bitrate=2765.6kbits/s speed=0.0161x elapsed=0:03:07.98    \nframe=   93 fps=0.5 q=43.5 size=    1024KiB time=00:00:03.03 bitrate=2765.6kbits/s speed=0.0161x elapsed=0:03:08.49    \nframe=   93 fps=0.5 q=43.5 size=    1024KiB time=00:00:03.03 bitrate=2765.6kbits/s speed=0.016x elapsed=0:03:09.01    \nframe=   93 fps=0.5 q=43.5 size=    1024KiB time=00:00:03.03 bitrate=2765.6kbits/s speed=0.016x elapsed=0:03:09.52    \nframe=   94 fps=0.5 q=37.5 size=    1024KiB time=00:00:03.06 bitrate=2735.5kbits/s speed=0.0161x elapsed=0:03:10.04    \nframe=   95 fps=0.5 q=40.6 size=    1024KiB time=00:00:03.10 bitrate=2706.1kbits/s speed=0.0163x elapsed=0:03:10.55    \nframe=   95 fps=0.5 q=40.6 size=    1024KiB time=00:00:03.10 bitrate=2706.1kbits/s speed=0.0162x elapsed=0:03:11.07    \nframe=   96 fps=0.5 q=43.6 size=    1024KiB time=00:00:03.13 bitrate=2677.3kbits/s speed=0.0164x elapsed=0:03:11.60    \nframe=   96 fps=0.5 q=43.6 size=    1024KiB time=00:00:03.13 bitrate=2677.3kbits/s speed=0.0163x elapsed=0:03:12.12    \nframe=   97 fps=0.5 q=43.6 size=    1024KiB time=00:00:03.16 bitrate=2649.1kbits/s speed=0.0164x elapsed=0:03:12.64    \nframe=   97 fps=0.5 q=43.6 size=    1024KiB time=00:00:03.16 bitrate=2649.1kbits/s speed=0.0164x elapsed=0:03:13.17    \nframe=   98 fps=0.5 q=43.5 size=    1024KiB time=00:00:03.20 bitrate=2621.6kbits/s speed=0.0165x elapsed=0:03:13.70    \nframe=   98 fps=0.5 q=43.5 size=    1024KiB time=00:00:03.20 bitrate=2621.6kbits/s speed=0.0165x elapsed=0:03:14.22    \nframe=   98 fps=0.5 q=43.5 size=    1024KiB time=00:00:03.20 bitrate=2621.6kbits/s speed=0.0164x elapsed=0:03:14.74    \nframe=   98 fps=0.5 q=43.5 size=    1024KiB time=00:00:03.20 bitrate=2621.6kbits/s speed=0.0164x elapsed=0:03:15.25    \nframe=   99 fps=0.5 q=37.4 size=    1024KiB time=00:00:03.23 bitrate=2594.5kbits/s speed=0.0165x elapsed=0:03:15.77    \nframe=   99 fps=0.5 q=37.4 size=    1024KiB time=00:00:03.23 bitrate=2594.5kbits/s speed=0.0165x elapsed=0:03:16.29    \nframe=  100 fps=0.5 q=41.0 size=    1024KiB time=00:00:03.26 bitrate=2568.0kbits/s speed=0.0166x elapsed=0:03:16.81    \nframe=  100 fps=0.5 q=41.0 size=    1024KiB time=00:00:03.26 bitrate=2568.0kbits/s speed=0.0166x elapsed=0:03:17.34    \nframe=  101 fps=0.5 q=43.4 size=    1024KiB time=00:00:03.30 bitrate=2542.1kbits/s speed=0.0167x elapsed=0:03:17.89    \nframe=  101 fps=0.5 q=43.4 size=    1024KiB time=00:00:03.30 bitrate=2542.1kbits/s speed=0.0166x elapsed=0:03:18.40    \nframe=  101 fps=0.5 q=43.4 size=    1024KiB time=00:00:03.30 bitrate=2542.1kbits/s speed=0.0166x elapsed=0:03:18.91    \nframe=  102 fps=0.5 q=43.6 size=    1024KiB time=00:00:03.33 bitrate=2516.7kbits/s speed=0.0167x elapsed=0:03:19.44    \nframe=  102 fps=0.5 q=43.6 size=    1024KiB time=00:00:03.33 bitrate=2516.7kbits/s speed=0.0167x elapsed=0:03:19.97    \nframe=  102 fps=0.5 q=43.6 size=    1024KiB time=00:00:03.33 bitrate=2516.7kbits/s speed=0.0166x elapsed=0:03:20.51    \nframe=  103 fps=0.5 q=37.4 size=    1024KiB time=00:00:03.36 bitrate=2491.8kbits/s speed=0.0167x elapsed=0:03:21.04    \nframe=  104 fps=0.5 q=40.8 size=    1024KiB time=00:00:03.40 bitrate=2467.3kbits/s speed=0.0169x elapsed=0:03:21.55    \nframe=  105 fps=0.5 q=43.6 size=    1024KiB time=00:00:03.40 bitrate=2467.3kbits/s speed=0.0168x elapsed=0:03:22.07    \nframe=  105 fps=0.5 q=43.6 size=    1024KiB time=00:00:03.43 bitrate=2443.4kbits/s speed=0.0169x elapsed=0:03:22.61    \nframe=  105 fps=0.5 q=43.6 size=    1024KiB time=00:00:03.43 bitrate=2443.4kbits/s speed=0.0169x elapsed=0:03:23.13    \nframe=  106 fps=0.5 q=43.5 size=    1280KiB time=00:00:03.46 bitrate=3024.8kbits/s speed=0.017x elapsed=0:03:23.67    \nframe=  106 fps=0.5 q=43.5 size=    1280KiB time=00:00:03.46 bitrate=3024.8kbits/s speed=0.017x elapsed=0:03:24.18    \nframe=  106 fps=0.5 q=43.5 size=    1280KiB time=00:00:03.46 bitrate=3024.8kbits/s speed=0.0169x elapsed=0:03:24.69    \nframe=  107 fps=0.5 q=43.7 size=    1280KiB time=00:00:03.50 bitrate=2996.0kbits/s speed=0.0171x elapsed=0:03:25.20    \nframe=  108 fps=0.5 q=37.5 size=    1280KiB time=00:00:03.53 bitrate=2967.8kbits/s speed=0.0172x elapsed=0:03:25.74    \nframe=  108 fps=0.5 q=37.5 size=    1280KiB time=00:00:03.53 bitrate=2967.8kbits/s speed=0.0171x elapsed=0:03:26.26    \nframe=  109 fps=0.5 q=41.5 size=    1280KiB time=00:00:03.56 bitrate=2940.0kbits/s speed=0.0172x elapsed=0:03:26.78    \nframe=  110 fps=0.5 q=43.4 size=    1280KiB time=00:00:03.60 bitrate=2912.8kbits/s speed=0.0174x elapsed=0:03:27.29    \nframe=  110 fps=0.5 q=43.4 size=    1280KiB time=00:00:03.60 bitrate=2912.8kbits/s speed=0.0173x elapsed=0:03:27.81    \nframe=  111 fps=0.5 q=37.6 size=    1280KiB time=00:00:03.63 bitrate=2886.1kbits/s speed=0.0174x elapsed=0:03:28.33    \nframe=  111 fps=0.5 q=37.6 size=    1280KiB time=00:00:03.63 bitrate=2886.1kbits/s speed=0.0174x elapsed=0:03:28.85    \nframe=  111 fps=0.5 q=37.6 size=    1280KiB time=00:00:03.63 bitrate=2886.1kbits/s speed=0.0174x elapsed=0:03:29.39    \nframe=  112 fps=0.5 q=40.9 size=    1280KiB time=00:00:03.66 bitrate=2859.8kbits/s speed=0.0175x elapsed=0:03:29.91    \nframe=  112 fps=0.5 q=40.9 size=    1280KiB time=00:00:03.66 bitrate=2859.8kbits/s speed=0.0174x elapsed=0:03:30.43    \nframe=  112 fps=0.5 q=40.9 size=    1280KiB time=00:00:03.66 bitrate=2859.8kbits/s speed=0.0174x elapsed=0:03:30.95    \nframe=  112 fps=0.5 q=40.9 size=    1280KiB time=00:00:03.66 bitrate=2859.8kbits/s speed=0.0173x elapsed=0:03:31.54    \nframe=  113 fps=0.5 q=43.5 size=    1280KiB time=00:00:03.70 bitrate=2834.1kbits/s speed=0.0174x elapsed=0:03:32.11    \nframe=  114 fps=0.5 q=37.7 size=    1280KiB time=00:00:03.70 bitrate=2834.1kbits/s speed=0.0174x elapsed=0:03:32.66    \nframe=  114 fps=0.5 q=37.7 size=    1280KiB time=00:00:03.73 bitrate=2808.8kbits/s speed=0.0175x elapsed=0:03:33.23    \nframe=  114 fps=0.5 q=37.7 size=    1280KiB time=00:00:03.73 bitrate=2808.8kbits/s speed=0.0175x elapsed=0:03:33.84    \nframe=  114 fps=0.5 q=37.7 size=    1280KiB time=00:00:03.73 bitrate=2808.8kbits/s speed=0.0174x elapsed=0:03:34.41    \nframe=  114 fps=0.5 q=37.7 size=    1280KiB time=00:00:03.73 bitrate=2808.8kbits/s speed=0.0174x elapsed=0:03:34.94    \nframe=  114 fps=0.5 q=37.7 size=    1280KiB time=00:00:03.73 bitrate=2808.8kbits/s speed=0.0173x elapsed=0:03:35.48    \nframe=  114 fps=0.5 q=37.7 size=    1280KiB time=00:00:03.73 bitrate=2808.8kbits/s speed=0.0173x elapsed=0:03:36.05    \nframe=  114 fps=0.5 q=37.7 size=    1280KiB time=00:00:03.73 bitrate=2808.8kbits/s speed=0.0172x elapsed=0:03:36.62    \nframe=  114 fps=0.5 q=37.7 size=    1280KiB time=00:00:03.73 bitrate=2808.8kbits/s speed=0.0172x elapsed=0:03:37.16    \nframe=  114 fps=0.5 q=37.7 size=    1280KiB time=00:00:03.73 bitrate=2808.8kbits/s speed=0.0171x elapsed=0:03:37.70    \nframe=  115 fps=0.5 q=42.5 size=    1280KiB time=00:00:03.76 bitrate=2783.9kbits/s speed=0.0173x elapsed=0:03:38.21    \nframe=  115 fps=0.5 q=42.5 size=    1280KiB time=00:00:03.76 bitrate=2783.9kbits/s speed=0.0172x elapsed=0:03:38.73    \nframe=  115 fps=0.5 q=42.5 size=    1280KiB time=00:00:03.76 bitrate=2783.9kbits/s speed=0.0172x elapsed=0:03:39.26    \nframe=  115 fps=0.5 q=42.5 size=    1280KiB time=00:00:03.76 bitrate=2783.9kbits/s speed=0.0171x elapsed=0:03:39.77    \nframe=  115 fps=0.5 q=42.5 size=    1280KiB time=00:00:03.76 bitrate=2783.9kbits/s speed=0.0171x elapsed=0:03:40.29    \nframe=  115 fps=0.5 q=42.5 size=    1280KiB time=00:00:03.76 bitrate=2783.9kbits/s speed=0.0171x elapsed=0:03:40.85    \nframe=  116 fps=0.5 q=43.6 size=    1280KiB time=00:00:03.80 bitrate=2759.5kbits/s speed=0.0172x elapsed=0:03:41.39    \nframe=  116 fps=0.5 q=43.6 size=    1280KiB time=00:00:03.80 bitrate=2759.5kbits/s speed=0.0171x elapsed=0:03:41.94    \nframe=  116 fps=0.5 q=43.6 size=    1280KiB time=00:00:03.80 bitrate=2759.5kbits/s speed=0.0171x elapsed=0:03:42.50    \nframe=  117 fps=0.5 q=37.5 size=    1280KiB time=00:00:03.83 bitrate=2735.5kbits/s speed=0.0172x elapsed=0:03:43.02    \nframe=  117 fps=0.5 q=37.5 size=    1280KiB time=00:00:03.83 bitrate=2735.5kbits/s speed=0.0171x elapsed=0:03:43.56    \nframe=  117 fps=0.5 q=37.5 size=    1280KiB time=00:00:03.83 bitrate=2735.5kbits/s speed=0.0171x elapsed=0:03:44.10    \nframe=  117 fps=0.5 q=37.5 size=    1280KiB time=00:00:03.83 bitrate=2735.5kbits/s speed=0.0171x elapsed=0:03:44.63    \nframe=  117 fps=0.5 q=37.5 size=    1280KiB time=00:00:03.83 bitrate=2735.5kbits/s speed=0.017x elapsed=0:03:45.17    \nframe=  117 fps=0.5 q=37.5 size=    1280KiB time=00:00:03.83 bitrate=2735.5kbits/s speed=0.017x elapsed=0:03:45.73    \nframe=  117 fps=0.5 q=37.5 size=    1280KiB time=00:00:03.83 bitrate=2735.5kbits/s speed=0.0169x elapsed=0:03:46.27    \nframe=  118 fps=0.5 q=40.8 size=    1280KiB time=00:00:03.86 bitrate=2711.9kbits/s speed=0.017x elapsed=0:03:46.80    \nframe=  118 fps=0.5 q=40.8 size=    1280KiB time=00:00:03.86 bitrate=2711.9kbits/s speed=0.017x elapsed=0:03:47.33    \nframe=  119 fps=0.5 q=43.5 size=    1280KiB time=00:00:03.86 bitrate=2711.9kbits/s speed=0.017x elapsed=0:03:47.84    \nframe=  119 fps=0.5 q=43.5 size=    1280KiB time=00:00:03.90 bitrate=2688.7kbits/s speed=0.0171x elapsed=0:03:48.37    \nframe=  119 fps=0.5 q=43.5 size=    1280KiB time=00:00:03.90 bitrate=2688.7kbits/s speed=0.017x elapsed=0:03:48.90    \nframe=  119 fps=0.5 q=43.5 size=    1280KiB time=00:00:03.90 bitrate=2688.7kbits/s speed=0.017x elapsed=0:03:49.42    \nframe=  120 fps=0.5 q=43.1 size=    1280KiB time=00:00:03.93 bitrate=2666.0kbits/s speed=0.0171x elapsed=0:03:49.98    \nframe=  120 fps=0.5 q=43.1 size=    1280KiB time=00:00:03.93 bitrate=2666.0kbits/s speed=0.0171x elapsed=0:03:50.51    \nframe=  120 fps=0.5 q=43.1 size=    1280KiB time=00:00:03.93 bitrate=2666.0kbits/s speed=0.017x elapsed=0:03:51.07    \nframe=  120 fps=0.5 q=43.1 size=    1280KiB time=00:00:03.93 bitrate=2666.0kbits/s speed=0.017x elapsed=0:03:51.61    \nframe=  121 fps=0.5 q=37.3 size=    1280KiB time=00:00:03.96 bitrate=2643.6kbits/s speed=0.0171x elapsed=0:03:52.17    \nframe=  121 fps=0.5 q=37.3 size=    1280KiB time=00:00:03.96 bitrate=2643.6kbits/s speed=0.017x elapsed=0:03:52.71    \nframe=  121 fps=0.5 q=37.3 size=    1280KiB time=00:00:03.96 bitrate=2643.6kbits/s speed=0.017x elapsed=0:03:53.22    \nframe=  122 fps=0.5 q=39.9 size=    1280KiB time=00:00:04.00 bitrate=2621.5kbits/s speed=0.0171x elapsed=0:03:53.75    \nframe=  122 fps=0.5 q=39.9 size=    1280KiB time=00:00:04.00 bitrate=2621.5kbits/s speed=0.0171x elapsed=0:03:54.28    \nframe=  122 fps=0.5 q=39.9 size=    1280KiB time=00:00:04.00 bitrate=2621.5kbits/s speed=0.017x elapsed=0:03:54.82    \nframe=  122 fps=0.5 q=39.9 size=    1280KiB time=00:00:04.00 bitrate=2621.5kbits/s speed=0.017x elapsed=0:03:55.33    \nframe=  122 fps=0.5 q=39.9 size=    1280KiB time=00:00:04.00 bitrate=2621.5kbits/s speed=0.017x elapsed=0:03:55.87    \nframe=  122 fps=0.5 q=39.9 size=    1280KiB time=00:00:04.00 bitrate=2621.5kbits/s speed=0.0169x elapsed=0:03:56.42    \nframe=  123 fps=0.5 q=43.3 size=    1280KiB time=00:00:04.03 bitrate=2599.9kbits/s speed=0.017x elapsed=0:03:56.95    \nframe=  124 fps=0.5 q=43.1 size=    1280KiB time=00:00:04.06 bitrate=2578.6kbits/s speed=0.0171x elapsed=0:03:57.47    \nframe=  124 fps=0.5 q=43.1 size=    1280KiB time=00:00:04.06 bitrate=2578.6kbits/s speed=0.0171x elapsed=0:03:58.00    \nframe=  124 fps=0.5 q=43.1 size=    1280KiB time=00:00:04.06 bitrate=2578.6kbits/s speed=0.017x elapsed=0:03:58.54    \nframe=  124 fps=0.5 q=43.1 size=    1280KiB time=00:00:04.06 bitrate=2578.6kbits/s speed=0.017x elapsed=0:03:59.10    \nframe=  125 fps=0.5 q=42.8 size=    1280KiB time=00:00:04.10 bitrate=2557.6kbits/s speed=0.0171x elapsed=0:03:59.63    \nframe=  125 fps=0.5 q=42.8 size=    1280KiB time=00:00:04.10 bitrate=2557.6kbits/s speed=0.0171x elapsed=0:04:00.16    \nframe=  125 fps=0.5 q=42.8 size=    1280KiB time=00:00:04.10 bitrate=2557.6kbits/s speed=0.017x elapsed=0:04:00.68    \nframe=  125 fps=0.5 q=42.8 size=    1280KiB time=00:00:04.10 bitrate=2557.6kbits/s speed=0.017x elapsed=0:04:01.22    \nframe=  126 fps=0.5 q=37.2 size=    1280KiB time=00:00:04.13 bitrate=2537.0kbits/s speed=0.0171x elapsed=0:04:01.75    \nframe=  126 fps=0.5 q=37.2 size=    1280KiB time=00:00:04.13 bitrate=2537.0kbits/s speed=0.0171x elapsed=0:04:02.29    \nframe=  126 fps=0.5 q=37.2 size=    1280KiB time=00:00:04.13 bitrate=2537.0kbits/s speed=0.017x elapsed=0:04:02.85    \nframe=  126 fps=0.5 q=37.2 size=    1280KiB time=00:00:04.13 bitrate=2537.0kbits/s speed=0.017x elapsed=0:04:03.45    \nframe=  127 fps=0.5 q=41.0 size=    1280KiB time=00:00:04.16 bitrate=2516.7kbits/s speed=0.0171x elapsed=0:04:04.05    \nframe=  127 fps=0.5 q=41.0 size=    1280KiB time=00:00:04.16 bitrate=2516.7kbits/s speed=0.017x elapsed=0:04:04.62    \nframe=  127 fps=0.5 q=41.0 size=    1280KiB time=00:00:04.16 bitrate=2516.7kbits/s speed=0.017x elapsed=0:04:05.19    \nframe=  127 fps=0.5 q=41.0 size=    1280KiB time=00:00:04.16 bitrate=2516.7kbits/s speed=0.017x elapsed=0:04:05.78    \nframe=  127 fps=0.5 q=41.0 size=    1280KiB time=00:00:04.16 bitrate=2516.7kbits/s speed=0.0169x elapsed=0:04:06.34    \nframe=  128 fps=0.5 q=42.7 size=    1536KiB time=00:00:04.20 bitrate=2996.0kbits/s speed=0.017x elapsed=0:04:06.91    \nframe=  128 fps=0.5 q=42.7 size=    1536KiB time=00:00:04.20 bitrate=2996.0kbits/s speed=0.017x elapsed=0:04:07.44    \nframe=  128 fps=0.5 q=42.7 size=    1536KiB time=00:00:04.20 bitrate=2996.0kbits/s speed=0.0169x elapsed=0:04:07.96    \nframe=  129 fps=0.5 q=37.2 size=    1536KiB time=00:00:04.23 bitrate=2972.4kbits/s speed=0.017x elapsed=0:04:08.47    \nframe=  130 fps=0.5 q=40.4 size=    1536KiB time=00:00:04.26 bitrate=2949.2kbits/s speed=0.0171x elapsed=0:04:08.99    \nframe=  130 fps=0.5 q=40.4 size=    1536KiB time=00:00:04.26 bitrate=2949.2kbits/s speed=0.0171x elapsed=0:04:09.51    \nframe=  130 fps=0.5 q=40.4 size=    1536KiB time=00:00:04.26 bitrate=2949.2kbits/s speed=0.0171x elapsed=0:04:10.03    \nframe=  130 fps=0.5 q=40.4 size=    1536KiB time=00:00:04.26 bitrate=2949.2kbits/s speed=0.017x elapsed=0:04:10.55    \nframe=  130 fps=0.5 q=40.4 size=    1536KiB time=00:00:04.26 bitrate=2949.2kbits/s speed=0.017x elapsed=0:04:11.09    \nframe=  131 fps=0.5 q=42.2 size=    1536KiB time=00:00:04.30 bitrate=2926.3kbits/s speed=0.0171x elapsed=0:04:11.60    \nframe=  131 fps=0.5 q=42.2 size=    1536KiB time=00:00:04.30 bitrate=2926.3kbits/s speed=0.0171x elapsed=0:04:12.11    \nframe=  131 fps=0.5 q=42.2 size=    1536KiB time=00:00:04.30 bitrate=2926.3kbits/s speed=0.017x elapsed=0:04:12.65    \nframe=  132 fps=0.5 q=42.2 size=    1536KiB time=00:00:04.33 bitrate=2903.8kbits/s speed=0.0171x elapsed=0:04:13.17    \nframe=  133 fps=0.5 q=37.3 size=    1536KiB time=00:00:04.36 bitrate=2881.7kbits/s speed=0.0172x elapsed=0:04:13.70    \nframe=  133 fps=0.5 q=37.3 size=    1536KiB time=00:00:04.36 bitrate=2881.7kbits/s speed=0.0172x elapsed=0:04:14.23    \nframe=  134 fps=0.5 q=37.7 size=    1536KiB time=00:00:04.40 bitrate=2859.8kbits/s speed=0.0173x elapsed=0:04:14.74    \nframe=  135 fps=0.5 q=43.1 size=    1536KiB time=00:00:04.43 bitrate=2838.3kbits/s speed=0.0174x elapsed=0:04:15.25    \nframe=  135 fps=0.5 q=43.1 size=    1536KiB time=00:00:04.43 bitrate=2838.3kbits/s speed=0.0173x elapsed=0:04:15.79    \nframe=  136 fps=0.5 q=42.6 size=    1536KiB time=00:00:04.46 bitrate=2817.1kbits/s speed=0.0174x elapsed=0:04:16.30    \nframe=  136 fps=0.5 q=42.6 size=    1536KiB time=00:00:04.46 bitrate=2817.1kbits/s speed=0.0174x elapsed=0:04:16.82    \nframe=  136 fps=0.5 q=42.6 size=    1536KiB time=00:00:04.46 bitrate=2817.1kbits/s speed=0.0174x elapsed=0:04:17.33    \nframe=  137 fps=0.5 q=43.0 size=    1536KiB time=00:00:04.50 bitrate=2796.3kbits/s speed=0.0175x elapsed=0:04:17.84    \nframe=  137 fps=0.5 q=43.0 size=    1536KiB time=00:00:04.50 bitrate=2796.3kbits/s speed=0.0174x elapsed=0:04:18.37    \nframe=  138 fps=0.5 q=37.5 size=    1536KiB time=00:00:04.53 bitrate=2775.7kbits/s speed=0.0175x elapsed=0:04:18.89    \nframe=  138 fps=0.5 q=37.5 size=    1536KiB time=00:00:04.53 bitrate=2775.7kbits/s speed=0.0175x elapsed=0:04:19.41    \nframe=  138 fps=0.5 q=37.5 size=    1536KiB time=00:00:04.53 bitrate=2775.7kbits/s speed=0.0174x elapsed=0:04:19.93    \nframe=  139 fps=0.5 q=40.6 size=    1536KiB time=00:00:04.56 bitrate=2755.5kbits/s speed=0.0175x elapsed=0:04:20.46    \nframe=  139 fps=0.5 q=40.6 size=    1536KiB time=00:00:04.56 bitrate=2755.5kbits/s speed=0.0175x elapsed=0:04:20.99    \nframe=  139 fps=0.5 q=40.6 size=    1536KiB time=00:00:04.56 bitrate=2755.5kbits/s speed=0.0175x elapsed=0:04:21.52    \nframe=  139 fps=0.5 q=40.6 size=    1536KiB time=00:00:04.56 bitrate=2755.5kbits/s speed=0.0174x elapsed=0:04:22.03    \nframe=  140 fps=0.5 q=43.4 size=    1536KiB time=00:00:04.60 bitrate=2735.5kbits/s speed=0.0175x elapsed=0:04:22.56    \nframe=  140 fps=0.5 q=43.4 size=    1536KiB time=00:00:04.60 bitrate=2735.5kbits/s speed=0.0175x elapsed=0:04:23.09    \nframe=  140 fps=0.5 q=43.4 size=    1536KiB time=00:00:04.60 bitrate=2735.5kbits/s speed=0.0175x elapsed=0:04:23.60    \nframe=  140 fps=0.5 q=43.4 size=    1536KiB time=00:00:04.60 bitrate=2735.5kbits/s speed=0.0174x elapsed=0:04:24.12    \nframe=  141 fps=0.5 q=43.3 size=    1536KiB time=00:00:04.63 bitrate=2715.8kbits/s speed=0.0175x elapsed=0:04:24.65    \nframe=  141 fps=0.5 q=43.3 size=    1536KiB time=00:00:04.63 bitrate=2715.8kbits/s speed=0.0175x elapsed=0:04:25.16    \nframe=  142 fps=0.5 q=38.4 size=    1536KiB time=00:00:04.66 bitrate=2696.4kbits/s speed=0.0176x elapsed=0:04:25.68    \nframe=  142 fps=0.5 q=38.4 size=    1536KiB time=00:00:04.66 bitrate=2696.4kbits/s speed=0.0175x elapsed=0:04:26.20    \nframe=  143 fps=0.5 q=42.1 size=    1536KiB time=00:00:04.70 bitrate=2677.3kbits/s speed=0.0176x elapsed=0:04:26.73    \nframe=  143 fps=0.5 q=42.1 size=    1536KiB time=00:00:04.70 bitrate=2677.3kbits/s speed=0.0176x elapsed=0:04:27.26    \nframe=  144 fps=0.5 q=43.5 size=    1536KiB time=00:00:04.73 bitrate=2658.4kbits/s speed=0.0177x elapsed=0:04:27.78    \nframe=  144 fps=0.5 q=43.5 size=    1536KiB time=00:00:04.73 bitrate=2658.4kbits/s speed=0.0176x elapsed=0:04:28.31    \nframe=  144 fps=0.5 q=43.5 size=    1536KiB time=00:00:04.73 bitrate=2658.4kbits/s speed=0.0176x elapsed=0:04:28.84    \nframe=  144 fps=0.5 q=43.5 size=    1536KiB time=00:00:04.73 bitrate=2658.4kbits/s speed=0.0176x elapsed=0:04:29.36    \nframe=  145 fps=0.5 q=43.3 size=    1536KiB time=00:00:04.76 bitrate=2639.8kbits/s speed=0.0177x elapsed=0:04:29.89    \nframe=  145 fps=0.5 q=43.3 size=    1536KiB time=00:00:04.76 bitrate=2639.8kbits/s speed=0.0176x elapsed=0:04:30.42    \nframe=  146 fps=0.5 q=43.3 size=    1536KiB time=00:00:04.80 bitrate=2621.5kbits/s speed=0.0177x elapsed=0:04:30.94    \nframe=  146 fps=0.5 q=43.3 size=    1536KiB time=00:00:04.80 bitrate=2621.5kbits/s speed=0.0177x elapsed=0:04:31.46    \nframe=  146 fps=0.5 q=43.3 size=    1536KiB time=00:00:04.80 bitrate=2621.5kbits/s speed=0.0176x elapsed=0:04:31.98    \nframe=  147 fps=0.5 q=40.7 size=    1536KiB time=00:00:04.83 bitrate=2603.4kbits/s speed=0.0177x elapsed=0:04:32.50    \nframe=  149 fps=0.5 q=43.6 size=    1792KiB time=00:00:04.90 bitrate=2996.0kbits/s speed=0.0179x elapsed=0:04:33.03    \n[mp4 @ 000001853ced9740] Starting second pass: moving the moov atom to the beginning of the file\n[out#0/mp4 @ 000001853cecab00] video:1804KiB audio:0KiB subtitle:0KiB other streams:0KiB global headers:2KiB muxing overhead: 0.282432%\nframe=  150 fps=0.5 q=43.4 Lsize=    1809KiB time=00:00:04.93 bitrate=3003.3kbits/s speed=0.018x elapsed=0:04:33.43    \nx265 [info]: frame I:      1, Avg QP:36.24  kb/s: 21150.00\nx265 [info]: frame P:     36, Avg QP:37.66  kb/s: 8732.71 \nx265 [info]: frame B:    113, Avg QP:42.50  kb/s: 951.90  \nx265 [info]: Weighted P-Frames: Y:63.9% UV:58.3%\n\nencoded 150 frames in 273.06s (0.55 fps), 2953.95 kb/s, Avg QP:41.30\n",
  "seconds": 273.79970955848694,
  "probe_out": {}
}